<?xml version="1.0" standalone="no"?>
<!DOCTYPE svg PUBLIC "-//W3C//DTD SVG 20010904//EN"
 "http://www.w3.org/TR/2001/REC-SVG-20010904/DTD/svg10.dtd">
<svg version="1.0" xmlns="http://www.w3.org/2000/svg"
 width="465.000000pt" height="465.000000pt" viewBox="0 0 465.000000 465.000000"
 preserveAspectRatio="xMidYMid meet">
<metadata>
Created by potrace 1.14, written by Peter Selinger 2001-2017
</metadata>
<g transform="translate(0.000000,465.000000) scale(0.100000,-0.100000)"
fill="#000000" stroke="none">
<path d="M2095 4640 c-198 -22 -418 -74 -591 -140 -706 -269 -1243 -867 -1429
-1595 -56 -217 -70 -332 -70 -580 0 -248 14 -363 70 -580 270 -1055 1243
-1781 2335 -1742 610 22 1163 270 1587 711 338 351 540 757 625 1251 29 174
32 521 4 695 -82 525 -318 980 -697 1345 -343 330 -782 546 -1264 621 -118 18
-457 26 -570 14z m772 -1188 c13 -8 65 -124 118 -259 l28 -73 267 0 267 0 24
-26 24 -26 3 -376 c2 -254 0 -389 -8 -414 -20 -69 -14 -68 -520 -68 l-450 0 0
150 0 150 -300 0 -300 0 0 -150 0 -151 -465 3 -464 3 -23 23 -23 23 -3 398 -3
399 26 31 27 31 265 2 266 3 63 155 c35 85 71 160 80 167 14 10 135 13 553 13
295 0 542 -4 548 -8z m-357 -1262 l0 -210 -190 0 -190 0 0 210 0 210 190 0
190 0 0 -210z m-490 -195 l0 -115 300 0 300 0 0 115 0 115 410 0 411 0 24 -25
25 -24 0 -415 0 -415 -26 -20 c-27 -21 -29 -21 -1149 -21 -1090 0 -1123 1
-1146 19 l-24 19 -5 394 c-3 216 -1 407 3 425 16 64 8 63 464 63 l413 0 0
-115z"/>
<path d="M1792 3244 c-23 -58 -42 -109 -42 -115 0 -5 217 -9 571 -9 540 0 571
1 565 18 -4 9 -24 61 -44 114 l-37 98 -486 0 -486 0 -41 -106z"/>
</g>
</svg>
