<?xml version="1.0" encoding="UTF-8" standalone="no"?>
<!-- Created with Inkscape (http://www.inkscape.org/) -->

<svg
   width="177mm"
   height="33mm"
   viewBox="0 0 668.97632 124.72454"
   version="1.1"
   id="svg1"
   xml:space="preserve"
   inkscape:version="1.3.2 (091e20e, 2023-11-25, custom)"
   sodipodi:docname="tecno_aplicada.svg"
   xmlns:inkscape="http://www.inkscape.org/namespaces/inkscape"
   xmlns:sodipodi="http://sodipodi.sourceforge.net/DTD/sodipodi-0.dtd"
   xmlns="http://www.w3.org/2000/svg"
   xmlns:svg="http://www.w3.org/2000/svg"><sodipodi:namedview
     id="namedview1"
     pagecolor="#ffffff"
     bordercolor="#000000"
     borderopacity="0.25"
     inkscape:showpageshadow="2"
     inkscape:pageopacity="0.0"
     inkscape:pagecheckerboard="0"
     inkscape:deskcolor="#d1d1d1"
     inkscape:document-units="mm"
     inkscape:zoom="1.6238559"
     inkscape:cx="337.16047"
     inkscape:cy="62.505547"
     inkscape:window-width="1920"
     inkscape:window-height="991"
     inkscape:window-x="-9"
     inkscape:window-y="-9"
     inkscape:window-maximized="1"
     inkscape:current-layer="layer1" /><defs
     id="defs1" /><g
     inkscape:label="Capa 1"
     inkscape:groupmode="layer"
     id="layer1"><path
       style="fill:none;fill-opacity:1;stroke:#ffffff;stroke-width:7.42677;stroke-linejoin:round;stroke-dasharray:none;stroke-opacity:1"
       d="m 210.66702,79.773489 h -50.91954 v -59.11165 h -13.17163 v 17.18736 h -8.1921 v 49.15262 H 96.780716 V 107.24113 H 121.35703 V 76.882159 h -13.49288 v -8.1921 H 63.691012 V 106.91987 H 77.505156 V 29.496459 l -31.194,-18.00985 V 106.91987 H 19.03601"
       id="path5" /><circle
       style="fill:#ffffff;fill-opacity:1;stroke:#ffffff;stroke-width:7.42677;stroke-linejoin:round;stroke-dasharray:none;stroke-opacity:1"
       id="path6"
       cx="17.148582"
       cy="106.9679"
       r="7.0275393" /><path
       style="font-size:77.8728px;font-family:'Pathway Gothic One';-inkscape-font-specification:'Pathway Gothic One';fill:#ffffff;stroke:#ffffff;stroke-width:0;stroke-linejoin:round"
       d="m 503.9243,102.29362 -2.41406,-14.172853 h -10.98007 l -2.33618,14.172853 h -6.22982 l 9.96771,-54.510965 h 8.25452 l 9.96772,54.510965 z m -7.86516,-46.645812 -4.67237,27.4891 h 9.26687 z M 516.306,102.29362 V 47.782655 h 9.65623 q 6.3077,0 9.18899,4.205132 2.95917,4.205131 2.95917,13.238376 v 0.389364 q 0,9.033245 -2.95917,13.238377 -2.88129,4.127258 -9.18899,4.127258 h -3.4264 v 19.312458 z m 6.22983,-24.218444 h 3.4264 q 5.9962,0 5.9962,-11.447302 v -2.414057 q 0,-11.447302 -5.9962,-11.447302 h -3.4264 z m 22.03806,24.218444 V 47.782655 h 6.22983 V 97.309758 H 562.874 v 4.983862 z m 24.37417,0 V 47.782655 h 6.22983 v 54.510965 z m 27.02182,1.16809 q -6.3077,0 -9.18899,-4.205132 -2.8813,-4.283004 -2.8813,-13.627741 V 64.447435 q 0,-9.344736 2.8813,-13.549868 2.88129,-4.283004 9.18899,-4.283004 5.06173,0 7.63153,3.03704 2.64768,2.959166 3.19279,9.422609 l -5.68472,1.40171 q -0.38936,-4.750241 -1.63533,-6.774934 -1.24596,-2.024693 -3.66002,-2.024693 -3.03704,0 -4.43875,2.725549 -1.32384,2.725548 -1.32384,8.721753 v 24.140569 q 0,5.840461 1.32384,8.488136 1.40171,2.647675 4.43875,2.647675 2.72555,0 4.04939,-2.180438 1.40171,-2.258312 1.79107,-7.709408 l 5.4511,0.700855 q -0.70086,7.397917 -3.42641,10.824324 -2.64767,3.4264 -7.7094,3.4264 z m 36.44451,-1.16809 -2.41405,-14.172853 h -10.98007 l -2.33618,14.172853 h -6.22983 l 9.96772,-54.510965 h 8.25452 l 9.96772,54.510965 z m -7.86515,-46.645812 -4.67237,27.4891 h 9.26687 z m 20.24685,46.645812 V 47.782655 h 10.5907 q 6.38557,0 9.34474,4.205132 2.95917,4.205131 2.95917,13.238376 v 19.623946 q 0,9.033246 -2.95917,13.238377 -2.95917,4.205134 -9.34474,4.205134 z m 6.22983,-4.905989 h 4.36087 q 6.15196,0 6.15196,-11.135811 V 63.902326 q 0,-11.135811 -6.15196,-11.135811 h -4.36087 z m 43.68666,4.905989 -2.41406,-14.172853 h -10.98006 l -2.33619,14.172853 h -6.22982 l 9.96772,-54.510965 h 8.25452 l 9.96771,54.510965 z m -7.86515,-46.645812 -4.67237,27.4891 h 9.26686 z"
       id="text6"
       transform="scale(0.94359198,1.0597801)"
       aria-label="APLICADA" /><path
       style="font-size:101.142px;font-family:Staatliches;-inkscape-font-specification:Staatliches;fill:#ffffff;stroke:#ffffff;stroke-width:0;stroke-linejoin:round"
       d="m 178.31083,130.51086 q -0.40456,0 -0.40456,-0.50571 V 72.354215 h -13.14846 q -0.50571,0 -0.50571,-0.50571 l 0.10114,-11.327904 q 0,-0.404568 0.40457,-0.404568 h 38.43396 q 0.50571,0 0.50571,0.404568 v 11.327904 q 0,0.50571 -0.40457,0.50571 h -13.2496 l 0.10114,57.650935 q 0,0.50571 -0.40457,0.50571 z m 30.74713,0 q -0.40456,0 -0.40456,-0.50571 l 0.10114,-69.484549 q 0,-0.404568 0.40457,-0.404568 h 32.46658 q 0.40456,0 0.40456,0.50571 v 11.327904 q 0,0.404568 -0.40456,0.404568 h -20.73411 v 15.778152 h 20.73411 q 0.40456,0 0.40456,0.404568 l 0.10115,11.429046 q 0,0.404569 -0.40457,0.404569 h -20.83525 v 17.69985 h 20.83525 q 0.40457,0 0.40457,0.50571 v 11.53019 q 0,0.40456 -0.40457,0.40456 z m 59.06686,1.01142 q -5.56281,0 -10.1142,-2.73083 -4.45025,-2.83198 -7.07994,-7.48451 -2.62969,-4.65253 -2.62969,-10.41762 l 0.10114,-31.556307 q 0,-5.56281 2.52855,-10.1142 2.62969,-4.652532 7.07994,-7.383366 4.55139,-2.831976 10.1142,-2.831976 5.56281,0 10.01305,2.730834 4.45025,2.730834 7.07994,7.383366 2.6297,4.55139 2.6297,10.215342 v 4.652532 q 0,0.404568 -0.40457,0.404568 h -11.32791 q -0.40456,0 -0.40456,-0.404568 v -4.652532 q 0,-3.337686 -2.22513,-5.765094 -2.12398,-2.427408 -5.36052,-2.427408 -3.64111,0 -5.56281,2.52855 -1.9217,2.427408 -1.9217,5.663952 v 31.556307 q 0,3.74225 2.12398,6.06852 2.22513,2.32626 5.36053,2.32626 3.23654,0 5.36052,-2.52855 2.22513,-2.62969 2.22513,-5.86623 v -4.65254 q 0,-0.40456 0.40456,-0.40456 h 11.42905 q 0.40457,0 0.40457,0.40456 v 4.65254 q 0,5.76509 -2.73084,10.41762 -2.62969,4.65253 -7.07994,7.48451 -4.45024,2.73083 -10.01305,2.73083 z m 28.11739,-1.01142 q -0.80914,0 -0.80914,-0.70799 l -0.10114,-68.877701 q 0,-0.809136 0.80913,-0.809136 h 9.10278 l 17.093,39.849948 -0.50571,-39.040812 q 0,-0.809136 0.91028,-0.809136 h 10.01306 q 0.60685,0 0.60685,0.809136 l 0.10114,68.978841 q 0,0.60685 -0.50571,0.60685 h -8.9005 l -17.49756,-37.220251 0.70799,36.411121 q 0,0.80913 -0.91028,0.80913 z m 64.73094,1.01142 q -5.46167,0 -10.01306,-2.73083 -4.45024,-2.83198 -7.18108,-7.38337 -2.73083,-4.65253 -2.73083,-10.21534 l 0.10114,-32.062011 q 0,-5.56281 2.62969,-10.1142 2.73084,-4.55139 7.28223,-7.282224 4.55139,-2.730834 9.91191,-2.730834 5.46167,0 9.91192,2.730834 4.45025,2.730834 7.07994,7.282224 2.73083,4.55139 2.73083,10.1142 l 0.10114,32.062011 q 0,5.56281 -2.73083,10.21534 -2.62969,4.55139 -7.18108,7.38337 -4.45025,2.73083 -9.91192,2.73083 z m 0,-12.23818 q 3.03426,0 5.25939,-2.42741 2.32626,-2.52855 2.32626,-5.66395 l -0.10114,-32.062011 q 0,-3.337686 -2.12398,-5.663952 -2.12398,-2.326266 -5.36053,-2.326266 -3.1354,0 -5.36052,2.326266 -2.22513,2.225124 -2.22513,5.663952 v 32.062011 q 0,3.33769 2.22513,5.7651 2.22512,2.32626 5.36052,2.32626 z"
       id="text6-9"
       transform="scale(1.1745376,0.85139889)"
       aria-label="TECNO" /></g></svg>
