<?xml version="1.0" encoding="UTF-8" standalone="no"?>
<!-- Created with Inkscape (http://www.inkscape.org/) -->

<svg
   width="500"
   height="500"
   viewBox="0 0 132.29166 132.29167"
   version="1.1"
   id="svg1"
   xml:space="preserve"
   inkscape:version="1.3.2 (091e20e, 2023-11-25, custom)"
   sodipodi:docname="portafolio.svg"
   xmlns:inkscape="http://www.inkscape.org/namespaces/inkscape"
   xmlns:sodipodi="http://sodipodi.sourceforge.net/DTD/sodipodi-0.dtd"
   xmlns="http://www.w3.org/2000/svg"
   xmlns:svg="http://www.w3.org/2000/svg"><sodipodi:namedview
     id="namedview1"
     pagecolor="#ffffff"
     bordercolor="#000000"
     borderopacity="0.25"
     inkscape:showpageshadow="2"
     inkscape:pageopacity="0.0"
     inkscape:pagecheckerboard="0"
     inkscape:deskcolor="#d1d1d1"
     inkscape:document-units="mm"
     showguides="true"
     inkscape:zoom="0.89105505"
     inkscape:cx="23.006435"
     inkscape:cy="268.7825"
     inkscape:window-width="1920"
     inkscape:window-height="991"
     inkscape:window-x="-9"
     inkscape:window-y="-9"
     inkscape:window-maximized="1"
     inkscape:current-layer="layer1" /><defs
     id="defs1" /><g
     inkscape:label="Capa 1"
     inkscape:groupmode="layer"
     id="layer1"><circle
       style="fill:#40c09d;fill-opacity:1;stroke:#ff0000;stroke-width:0;stroke-linejoin:round;font-variation-settings:normal;opacity:1;vector-effect:none;stroke-linecap:butt;stroke-miterlimit:4;stroke-dasharray:none;stroke-dashoffset:0;stroke-opacity:1;-inkscape-stroke:none;stop-color:#000000;stop-opacity:1"
       id="path6"
       cx="64.446541"
       cy="66.483421"
       r="61.45863" /><circle
       style="fill:#e5863a;fill-opacity:1;stroke:#ff0000;stroke-width:0;stroke-linejoin:round;font-variation-settings:normal;opacity:1;vector-effect:none;stroke-linecap:butt;stroke-miterlimit:4;stroke-dasharray:none;stroke-dashoffset:0;stroke-opacity:1;-inkscape-stroke:none;stop-color:#000000;stop-opacity:1"
       id="circle6"
       cx="64.446541"
       cy="66.483421"
       r="61.45863"
       inkscape:label="CirclePurple" /><path
       id="path6-4"
       style="fill:#000000;fill-opacity:0.2862069;stroke:#ff0000;stroke-width:0;stroke-linejoin:round"
       d="M 97.243799,46.121306 125.26596,74.176631 C 121.54488,103.91606 96.574769,127.05064 66.032918,127.90308 65.495235,127.20081 33.66597,96.39387 33.670752,95.809641 l 0.18807,-22.978065 -2.581458,-4.473105 15.153923,-22.943782 4.555051,-7.827448 28.076902,-0.629838 9.349642,9.718681 z"
       sodipodi:nodetypes="cccsccccccc" /><path
       id="rect1-7"
       style="fill:#f5f5f5;fill-opacity:1;stroke:#ff0000;stroke-width:0;stroke-linejoin:round"
       d="m 35.367323,72.124763 h 20.967223 l -8.84e-4,6.087323 15.810481,-1.82e-4 -0.02804,-6.087141 h 20.896571 c 1.290731,0 2.359811,1.039109 2.359811,2.32984 v 19.803642 c 0,1.290732 -1.039108,2.32984 -2.329839,2.32984 H 35.397295 c -1.290731,0 -2.327887,-1.039109 -2.32984,-2.32984 l -0.02997,-19.803642 c -0.002,-1.29073 1.039109,-2.32984 2.32984,-2.32984 z"
       sodipodi:nodetypes="sccccsssssssss" /><path
       style="fill:#f5f5f5;stroke:#ff0000;stroke-width:0;stroke-linejoin:round;fill-opacity:1"
       d="m 45.813149,45.779361 3.236173,-8.118856 c 0.249349,-0.68639 0.965527,-1.18724 1.723061,-1.216277 l 26.845484,0.002 c 1.047055,0.0071 1.592369,0.467692 1.838412,1.112876 l 3.446121,8.446377 -3.209623,0.06757 -2.630994,-6.757101 -25.61369,0.03378 -2.398771,6.216534"
       id="path1"
       sodipodi:nodetypes="cccccccccc" /><path
       id="rect1"
       style="fill:#f5f5f5;fill-opacity:1;stroke:#ff0000;stroke-width:0;stroke-linejoin:round"
       d="m 32.872586,45.390926 h 62.878383 c 1.270563,0 2.293436,1.022873 2.293436,2.293437 v 19.494208 c 0,1.270564 -1.022873,2.293437 -2.293436,2.293437 l -23.607824,0 0.0011,-7.881505 -15.807165,-0.0025 -0.0029,7.884033 -23.461566,0 c -1.270564,0 -2.293437,-1.022873 -2.293437,-2.293437 V 47.684363 c 0,-1.270564 1.022873,-2.293437 2.293437,-2.293437 z"
       sodipodi:nodetypes="sssssccccssss" /><rect
       style="fill:#f5f5f5;fill-opacity:1;stroke:#ff0000;stroke-width:0;stroke-linejoin:round"
       id="rect6"
       width="10.219531"
       height="11.178646"
       x="59.20052"
       y="64.525261"
       ry="0.44135082"
       inkscape:label="portfolio_1" /></g></svg>
