<?xml version="1.0" encoding="utf-8"?>
<!-- Generator: Adobe Illustrator 21.0.2, SVG Export Plug-In . SVG Version: 6.00 Build 0)  -->
<svg version="1.1" id="Layer_1" xmlns="http://www.w3.org/2000/svg" xmlns:xlink="http://www.w3.org/1999/xlink" x="0px" y="0px"
	 viewBox="0 0 545.1 107.1" style="enable-background:new 0 0 545.1 107.1;" xml:space="preserve">
<style type="text/css">
	.st0{fill:rgb(0, 123, 193);}
	.st1{fill:#c6ced6;}
</style>
<polygon class="st0" points="54.3,87 20.2,0 0,0 44,107.3 64.2,107.3 108.2,0 89.7,0 "/>
<rect x="121.1" class="st0" width="17.5" height="107.2"/>
<path class="st0" d="M241.3,40.7C241.3,16,217.5,0,202.7,0c-14.7,0-45.2,0-45.2,0v107.2h17.9V16.1h21.1c5.9,0,11.7,1.4,16.8,4.3
	c6,3.5,12.1,9.6,12.1,20.2c0,21.2-17.2,27.5-28.8,30.8l28.8,35.7h22.5l-24.5-30.4C223.4,76.8,241.3,69.2,241.3,40.7z"/>
<polygon class="st1" points="357.1,107.3 441.8,107.3 441.8,91 373.6,91 373.6,60.8 441.8,60.8 441.8,43.2 373.6,43.2 373.6,16.2
	441.8,16.2 441.8,0 357.1,0 "/>
<polygon class="st1" points="457.7,0 457.7,14.3 457.7,16.2 493.4,16.2 493.4,107.3 511.3,107.3 511.3,16.2 545.1,16.2 545.1,14.3
	545.1,0 "/>
<polygon class="st1" points="337.3,107.1 347.6,93.9 303.2,53.6 346.4,12.6 335.1,0 276,52.9 "/>
<rect x="258.1" class="st1" width="17.9" height="107.2"/>
</svg>
